# xmcd
#
# Track frame offsets:
#	150
#	12977
#	27377
#	41327
#	54340
#	70622
#	85430
#	99562
#	112557
#	127690
#	141522
#	154682
#	168292
#	179625
#	191480
#	204935
#	220885
#	236390
#	249440
#	264162
#
# Disc length: 3741 seconds
#
# Revision: 2
# Processed by: cddbd v1.5.2PL0 Copyright (c) Steve Scherf et al.
# Submitted via: Collectorz.com_Music_Collector 6.11
#
DISCID=000e9b14
DTITLE=Bing Crosby - Earliest Recordings Vol. 1: Rhythm King
DYEAR=2003
DGENRE=Jazz
TTITLE0=I've Got the Girl
TTITLE1=Pretty Lips
TTITLE2=Side by Side
TTITLE3=Magnolia
TTITLE4=Mississippi Mud - I Left My Sugar Standing in the Rain
TTITLE5=Sweet Lil - Ain't She Sweet
TTITLE6=Five-Step
TTITLE7=I Won't Be Long Now
TTITLE8=Miss Annabelle Lee
TTITLE9=Sunshine
TTITLE10=What Price Lyrics
TTITLE11=That's My Weakness Now
TTITLE12=Wa-Da-Da
TTITLE13=Out-O'town Gal
TTITLE14=That's Grandma
TTITLE15=Rythm King
TTITLE16=Louise
TTITLE17=I Like to Do Things for You
TTITLE18=A Bench in the Park
TTITLE19=Them There Eyes
EXTD=
EXTT0=
EXTT1=
EXTT2=
EXTT3=
EXTT4=
EXTT5=
EXTT6=
EXTT7=
EXTT8=
EXTT9=
EXTT10=
EXTT11=
EXTT12=
EXTT13=
EXTT14=
EXTT15=
EXTT16=
EXTT17=
EXTT18=
EXTT19=
PLAYORDER=
